<svg width="1432" height="274" viewBox="0 0 1432 274" fill="none" xmlns="http://www.w3.org/2000/svg">
<path d="M0.58 3.99998H42.38V270H0.58V3.99998ZM73.6855 3.99998H126.125L166.785 163.22H167.545V3.99998H204.785V270H161.845L111.685 75.82H110.925V270H73.6855V3.99998ZM290.193 273.8C269.927 273.8 254.6 268.1 244.213 256.7C233.827 245.047 228.633 228.453 228.633 206.92V191.72H268.153V209.96C268.153 227.187 275.373 235.8 289.813 235.8C296.907 235.8 302.227 233.773 305.773 229.72C309.573 225.413 311.473 218.573 311.473 209.2C311.473 198.053 308.94 188.3 303.873 179.94C298.807 171.327 289.433 161.067 275.753 149.16C258.527 133.96 246.493 120.28 239.653 108.12C232.813 95.7067 229.393 81.7733 229.393 66.32C229.393 45.2933 234.713 29.08 245.353 17.68C255.993 6.02665 271.447 0.199986 291.713 0.199986C311.727 0.199986 326.8 6.02665 336.933 17.68C347.32 29.08 352.513 45.5467 352.513 67.08V78.1H312.993V64.42C312.993 55.3 311.22 48.7133 307.673 44.66C304.127 40.3533 298.933 38.2 292.093 38.2C278.16 38.2 271.193 46.6867 271.193 63.66C271.193 73.2867 273.727 82.28 278.793 90.64C284.113 99 293.613 109.133 307.293 121.04C324.773 136.24 336.807 150.047 343.393 162.46C349.98 174.873 353.273 189.44 353.273 206.16C353.273 227.947 347.827 244.667 336.933 256.32C326.293 267.973 310.713 273.8 290.193 273.8ZM409.92 42H366.22V3.99998H495.42V42H451.72V270H409.92V42ZM530.517 3.99998H587.137L630.457 270H588.657L581.057 217.18V217.94H533.557L525.957 270H487.197L530.517 3.99998ZM576.117 181.84L557.497 50.36H556.737L538.497 181.84H576.117ZM650.736 3.99998H703.176L743.836 163.22H744.596V3.99998H781.836V270H738.896L688.736 75.82H687.976V270H650.736V3.99998ZM845.584 42H801.884V3.99998H931.084V42H887.384V270H845.584V42ZM1012.18 3.99998H1076.02C1096.79 3.99998 1112.37 9.57332 1122.76 20.72C1133.15 31.8667 1138.34 48.2067 1138.34 69.74V204.26C1138.34 225.793 1133.15 242.133 1122.76 253.28C1112.37 264.427 1096.79 270 1076.02 270H1012.18V3.99998ZM1075.26 232C1082.1 232 1087.29 229.973 1090.84 225.92C1094.64 221.867 1096.54 215.28 1096.54 206.16V67.84C1096.54 58.72 1094.64 52.1333 1090.84 48.08C1087.29 44.0267 1082.1 42 1075.26 42H1053.98V232H1075.26ZM1198.11 3.99998H1254.73L1298.05 270H1256.25L1248.65 217.18V217.94H1201.15L1193.55 270H1154.79L1198.11 3.99998ZM1243.71 181.84L1225.09 50.36H1224.33L1206.09 181.84H1243.71ZM1339.27 156.76L1288.73 3.99998H1333.19L1361.69 101.66H1362.45L1390.95 3.99998H1431.61L1381.07 156.76V270H1339.27V156.76Z" fill="black"/>
</svg>
