<svg width="50" height="50" viewBox="0 0 50 50" fill="none" xmlns="http://www.w3.org/2000/svg">
<path d="M24.5641 49.1281C38.1304 49.1281 49.1281 38.1304 49.1281 24.5641C49.1281 10.9977 38.1304 0 24.5641 0C10.9977 0 0 10.9977 0 24.5641C0 38.1304 10.9977 49.1281 24.5641 49.1281Z" fill="black"/>
<path d="M38.8211 28.6992C38.7748 28.6684 38.7439 28.5912 38.6822 28.5449C38.1422 28.2055 37.6947 29.409 37.5713 29.7639C37.0929 31.1525 37.0312 32.7881 36.7689 34.2385C36.1054 37.8953 34.5162 42.1693 30.8593 43.774C28.6992 44.7307 25.8293 44.2215 23.592 43.7123C21.6787 43.2803 21.7558 40.4721 23.9006 40.4103C24.3789 40.4103 24.9498 40.5492 25.4435 40.6109C26.5699 40.7344 28.1437 40.9967 29.2238 40.6572C31.9549 39.8086 33.2201 36.4295 34.115 33.9762C34.1613 33.8527 34.439 33.1121 34.4236 33.0658C33.2509 32.6801 31.9394 31.6 31.3531 30.5045C31.2142 30.2422 30.7976 29.193 31.0445 28.9769C31.3222 28.7301 31.5537 29.301 31.6925 29.4861C32.5257 30.5354 33.8218 30.9828 35.1334 31.06H35.1797C35.658 29.8101 36.5375 27.7426 38.0496 27.5574C38.497 27.5111 39.0525 27.8043 39.2377 28.2055C39.4074 28.5603 39.1142 28.8689 38.8211 28.6838V28.6992Z" fill="white"/>
<path d="M16.3092 25.4744C20.4289 24.4869 23.3142 28.1591 23.2217 32.0166C23.1445 35.4265 21.1078 38.8056 18.2224 40.5492C17.3892 41.0584 16.124 41.7681 15.2291 42.1384C13.5318 42.8328 12.4672 40.5492 13.8558 39.5771C14.9668 38.8056 16.3092 38.2501 17.4201 37.4632C20.0431 35.5808 22.1107 31.1525 19.9351 28.2517C17.7596 25.3355 14.0101 27.2488 12.2666 29.5941C12.0506 29.8873 11.526 30.7668 11.4951 31.1062C11.4642 31.4457 11.6185 31.4611 11.3562 31.4148C11.0939 31.3685 11.1865 30.9056 11.2174 30.7359C11.5877 28.4369 14.0719 26.0144 16.2937 25.4744H16.3092Z" fill="white"/>
<path d="M10.0447 19.3952H10.523C10.6927 19.3952 11.2019 19.6729 11.3253 19.8118C11.9888 20.4753 11.7111 21.4319 10.8933 21.8022C9.19605 22.5583 8.08511 21.3085 6.40328 21.4319C6.11011 21.4474 5.07632 21.7251 4.92203 21.972C4.84488 22.0954 4.90659 22.2806 4.65972 22.3423C4.25855 22.4503 4.08882 22.0491 4.19683 21.7097C4.41284 20.9536 6.32612 20.2593 7.03589 20.0587C7.4062 19.9507 7.79195 19.9044 8.14683 19.7501C9.13433 18.1608 9.62808 16.3247 10.5076 14.6583C10.5076 14.5966 10.5076 14.612 10.4613 14.612C10.1527 14.5657 9.81323 14.6429 9.50464 14.6429C8.56343 14.6583 7.60679 14.5966 6.71187 14.9206C6.43414 15.0132 5.84781 15.3063 5.81695 15.6304C5.81695 15.8309 6.03296 15.9852 5.84781 16.2013C5.49292 16.587 5.18433 15.8927 5.24605 15.5224C5.52379 13.9022 8.82574 13.7479 10.0601 13.5474C10.955 13.4085 11.8962 13.2696 12.7757 13.0845C14.1027 12.8067 15.4759 12.3901 16.3709 11.3101C15.5222 10.8934 15.1982 9.68993 16.124 9.14989C17.0498 8.60986 17.4201 8.9956 17.991 9.39678C19.9043 10.7083 18.7316 13.0382 16.9263 13.7325C15.121 14.4268 13.0998 14.5194 11.1865 14.5811C10.8162 15.3372 10.5693 16.1704 10.3841 16.9882C10.2144 17.7751 10.0601 18.5774 10.0755 19.3798L10.0447 19.3952Z" fill="white"/>
<path d="M26.431 30.1651C26.0916 29.301 25.6596 28.1438 24.5795 28.9924C24.3943 29.1313 24.2246 29.4399 23.9777 29.2393C23.4223 28.8073 24.3172 27.7117 24.7492 27.4649C25.8601 26.8323 26.9711 27.5112 27.5883 28.4524C28.4678 29.7793 29.0232 31.4457 29.7176 32.8807C30.1187 33.7139 30.5816 34.5162 30.9982 35.3494C31.1217 35.9975 30.5662 36.6147 29.8873 36.4141C29.1775 36.1981 28.8226 34.9174 28.2826 34.4391C27.3105 34.5625 26.1379 34.8557 25.2584 34.2848C23.9623 33.4362 24.2709 31.2914 25.4744 30.5045C25.5516 30.4582 25.8601 30.2731 25.9219 30.2576L26.431 30.1805V30.1651ZM26.8785 31.2914C26.3385 31.3686 25.783 32.2481 25.9527 32.7573C26.0916 33.143 27.2642 33.1276 27.6037 33.1121L26.8785 31.3069V31.2914Z" fill="white"/>
<path d="M36.4603 16.7721C35.3648 17.343 34.6705 18.4848 34.1613 19.5649C34.0842 19.7192 34.0224 20.0278 33.899 20.1358C33.6676 20.3518 33.359 20.2129 33.2818 19.9197C33.1584 19.3489 33.2818 17.2504 33.6367 16.803C33.9916 16.3555 33.8373 16.6332 33.9607 16.7412C34.1459 16.8955 34.0996 17.8522 34.1613 18.1145C34.5933 17.3584 35.5808 15.692 36.5221 15.584C37.3244 15.4914 37.6793 16.1549 37.8799 16.8184C38.1113 17.6053 38.2347 18.4848 38.4353 19.2871C38.6205 20.0895 38.8211 20.7992 38.9908 21.5553C39.1605 22.3113 39.4228 23.268 39.3611 23.7C39.2222 24.5487 38.0496 24.8881 37.4787 24.1783C37.2318 23.8697 36.9695 22.7125 36.8769 22.2805C36.4912 20.4598 36.6764 18.5928 36.4449 16.7721H36.4603Z" fill="white"/>
<path d="M39.3457 11.85C39.7469 11.6649 40.1172 11.4026 40.5492 11.2637C41.4441 10.9551 42.5705 11.1248 42.6322 12.2666C42.7094 13.5627 41.5213 13.7787 40.5184 13.8867C40.3023 13.9022 39.9937 13.8867 39.7932 13.9176C39.5926 13.9485 39.7314 13.933 39.716 13.9639C39.8394 14.3342 39.9629 14.7199 40.1326 15.0902C40.5492 15.9543 41.2898 16.7104 41.9225 17.4201C42.5551 18.1453 42.6785 18.099 42.6939 18.4848C42.7248 19.0865 42.0305 19.4877 41.5367 19.1174C41.1973 18.8705 40.5801 18.2379 40.2715 17.9139C39.932 17.559 39.5771 17.1115 39.3303 16.6795C38.8828 15.8617 38.7439 14.9051 38.5896 13.9947C38.5588 13.9639 38.1113 14.0873 38.0342 14.1028C37.7873 14.1799 37.1393 14.5811 37.0004 14.149C36.8615 13.717 37.0621 13.6553 37.2318 13.4547C37.5559 13.0535 38.0805 12.7604 38.4971 12.4518C38.4971 11.7574 38.5588 11.0477 38.7131 10.3842C38.8674 9.72072 38.8211 9.85959 38.8982 9.78244C39.0371 9.61271 39.2531 9.75158 39.284 9.9213C39.3457 10.199 39.2531 10.6619 39.284 10.9705L39.3457 11.8346V11.85Z" fill="white"/>
<path d="M25.2584 16.8029C25.5361 17.9756 25.8293 19.1328 26.6007 20.1049C26.9556 20.5369 27.2951 20.8455 27.7734 21.1232C28.0048 21.2621 28.3134 21.3855 28.5294 21.509C28.9615 21.8021 28.73 22.4193 28.1437 22.3267C27.6808 22.2496 26.7242 21.8793 26.3693 21.5861C25.0269 20.4752 24.5332 18.5465 24.2709 16.8955C24.2246 16.8338 23.7925 16.8646 23.6845 16.8646C23.3914 16.8338 22.8513 16.7103 22.805 16.3554C22.7279 15.7383 23.6382 15.3834 24.0085 15.0439L23.916 13.3158C23.9623 13.0844 23.9314 11.7728 24.1628 11.6957C24.3943 11.6185 24.4097 11.6957 24.4251 11.8191C24.5023 12.39 24.5486 12.9763 24.6412 13.5472C24.6875 13.8095 24.7337 14.2724 24.7955 14.5039C24.7955 14.5347 24.7955 14.5656 24.8418 14.581C25.1349 14.4267 25.4435 14.3033 25.7521 14.1953C26.0607 14.0873 26.4619 13.9484 26.7396 13.933C28.3751 13.7941 28.7146 16.0469 27.1716 16.4943C25.6132 16.9264 25.8755 16.7412 25.2584 16.8183V16.8029Z" fill="white"/>
<path d="M30.7514 20.6759C30.7051 20.6759 30.6896 20.6759 30.6742 20.7067C30.3039 20.9536 30.2113 21.2468 29.6558 21.2622C28.4986 21.3239 28.0512 19.8427 28.1283 18.9169C28.2209 17.8522 29.2701 16.803 30.3965 17.1579C30.3965 16.803 30.3039 16.479 30.1959 16.1395C29.9644 16.0315 29.193 16.5407 29.1621 16.1087C29.1312 15.6304 29.8101 15.0286 30.2885 14.9823C32.0937 14.8126 32.0629 17.7905 32.1709 18.9632C32.2172 19.3952 32.2635 19.8118 32.2943 20.2438C32.3406 20.7839 32.5721 21.4936 31.8932 21.7405C31.1525 22.0028 30.8285 21.2622 30.7514 20.645V20.6759ZM29.8256 18.346C29.085 18.4694 29.0849 19.6112 29.409 20.1204C29.733 20.6296 30.3039 19.9661 30.5045 19.7346C30.5045 19.5958 30.4582 19.4261 30.4582 19.3026C30.4582 19.1792 30.4891 18.7163 30.4428 18.5928C30.3656 18.4231 30.0107 18.2997 29.8256 18.3305V18.346Z" fill="white"/>
<path d="M16.4017 18.7625C15.7228 19.21 15.692 20.074 15.3371 20.6912C14.6582 21.8947 12.9763 20.9844 13.4547 19.7963C13.5472 19.5803 14.3187 18.4848 14.473 18.3613C14.7353 18.1762 14.8433 18.3459 14.9513 18.315C15.0593 18.2842 15.6611 17.775 15.8308 17.6516C16.2474 17.3893 16.772 17.0807 17.2504 17.3893C18.1299 17.9447 17.4818 20.0432 17.7904 20.9844C18.099 21.9256 18.8396 21.8484 18.7162 22.7434C18.6545 23.2063 18.1144 23.6229 17.6515 23.6229C17.0035 23.6229 16.2783 22.6045 16.0931 22.0336C15.7382 20.9535 16.1703 19.8272 16.3863 18.7779L16.4017 18.7625Z" fill="white"/>
<path d="M22.2188 17.5281C22.7588 17.4664 23.592 17.775 23.5303 18.4231C23.4686 19.0711 23.0057 19.0402 22.9748 18.7471C22.9439 18.4539 23.1754 18.4693 22.9902 18.2688C22.5119 17.7596 21.2775 18.3459 21.4781 18.9631C21.5398 19.1637 22.0953 19.1482 22.2959 19.1945C23.9006 19.5803 24.0395 21.6478 22.7742 22.5736C20.8918 23.9469 18.5156 22.4193 18.7471 20.1512C18.8088 19.4414 19.6266 19.0557 20.2129 19.4723C20.7684 19.8734 20.4906 20.6449 21.077 21.0924C21.6633 21.5398 21.8793 21.3393 22.0336 20.9381C22.3576 20.0895 21.3547 20.074 21.0307 19.534C20.5061 18.6854 21.3084 17.6207 22.2188 17.5127V17.5281Z" fill="white"/>
<path d="M15.3834 29.1468C15.5068 29.1005 15.5839 29.1159 15.7074 29.1468C16.0931 29.3011 15.908 29.6559 15.9234 29.9491C16.016 31.4767 16.6177 32.9888 16.9572 34.47C17.0189 34.7632 17.1423 35.2415 17.1578 35.5347C17.2658 36.9542 15.3834 37.4788 14.8742 36.121C14.365 34.7786 14.7045 31.5847 14.9205 30.1034C14.9668 29.7794 14.9822 29.2702 15.3679 29.1468H15.3834Z" fill="white"/>
</svg>
